<svg width="248" height="250" viewBox="0 0 248 250" fill="none" xmlns="http://www.w3.org/2000/svg">
<path d="M233.55 125C233.55 116.12 239.16 108.58 247.01 105.65C237.71 45.8 185.96 0 123.51 0C61.06 0 9.3 45.8 0 105.65C7.86 108.58 13.46 116.12 13.46 125C13.46 133.88 7.85 141.42 0 144.35C9.3 204.2 61.05 250 123.51 250C185.97 250 237.72 204.2 247.02 144.35C239.16 141.42 233.56 133.88 233.56 125H233.55Z" fill="#254222"/>
<path d="M123.51 245C94.7098 245 66.8598 234.64 45.0898 215.83C24.4898 198.03 10.5498 173.78 5.56982 147.23C13.4198 142.71 18.4598 134.22 18.4598 124.99C18.4598 115.76 13.4198 107.28 5.56982 102.75C10.5498 76.2 24.4898 51.96 45.0898 34.15C66.8498 15.36 94.6998 5 123.51 5C152.32 5 180.16 15.36 201.93 34.17C222.53 51.97 236.47 76.22 241.45 102.77C233.6 107.29 228.56 115.78 228.56 125.01C228.56 134.24 233.6 142.72 241.45 147.25C236.47 173.8 222.53 198.04 201.93 215.85C180.17 234.66 152.32 245.02 123.51 245.02V245Z" stroke="#FFF7D4" stroke-miterlimit="10"/>
<path d="M55.6698 134.06L55.9398 138.3C55.9798 139 55.6598 139.37 54.9598 139.41L24.9698 141.3C24.2698 141.34 23.8998 141.02 23.8598 140.32L23.0898 128.14C22.9298 125.55 23.4998 123.49 24.8098 121.97C26.1198 120.45 28.0898 119.61 30.7098 119.44L35.4998 119.14C38.1298 118.97 40.1898 119.56 41.6698 120.91C43.1598 122.25 43.9798 124.22 44.1498 126.82L44.5498 133.11C44.5798 133.51 44.7698 133.7 45.1398 133.67L54.5698 133.08C55.2698 133.04 55.6398 133.36 55.6798 134.06H55.6698ZM38.9998 133.51L38.6698 128.22C38.5998 127.16 38.3298 126.42 37.8598 126.02C37.3798 125.62 36.6298 125.45 35.5998 125.51L31.4098 125.77C30.3498 125.84 29.5998 126.1 29.1798 126.56C28.7598 127.02 28.5798 127.78 28.6498 128.85L28.9798 134.14C28.9998 134.51 29.1998 134.68 29.5598 134.65L38.4898 134.09C38.8598 134.07 39.0298 133.87 38.9998 133.51Z" fill="#FFF7D4"/>
<path d="M61.5298 95.0304L56.3198 110.53C56.0998 111.19 55.6498 111.41 54.9898 111.19L26.4998 101.62C25.8398 101.4 25.6198 100.95 25.8398 100.29L31.0498 84.7904C31.2598 84.1604 31.6998 83.9504 32.3598 84.1804L35.5798 85.2604C36.2398 85.4804 36.4698 85.9104 36.2598 86.5404L32.9298 96.4504C32.7998 96.8304 32.9098 97.0804 33.2598 97.1904L39.4198 99.2604C39.7698 99.3804 39.9998 99.2504 40.1298 98.8704L42.8498 90.7704C43.0698 90.1104 43.5198 89.8904 44.1798 90.1104L47.3998 91.1904C48.0598 91.4104 48.2798 91.8604 48.0598 92.5204L45.3398 100.62C45.2098 101 45.3198 101.25 45.6698 101.36L52.2598 103.57C52.6098 103.69 52.8398 103.56 52.9698 103.18L56.2998 93.2704C56.5098 92.6404 56.9498 92.4304 57.6098 92.6604L60.8298 93.7404C61.4898 93.9604 61.7198 94.3904 61.5098 95.0204L61.5298 95.0304Z" fill="#FFF7D4"/>
<path d="M72.0396 80.1003L69.3795 83.3503C68.9095 83.9203 68.4095 83.9803 67.8695 83.5303L48.4995 67.6403C48.2196 67.4103 47.9595 67.4303 47.7295 67.7203L44.1096 72.1303C43.6696 72.6703 43.1695 72.7203 42.6295 72.2803L39.9996 70.1203C39.4596 69.6803 39.4095 69.1803 39.8495 68.6403L51.8395 54.0303C52.2795 53.4903 52.7795 53.4403 53.3195 53.8803L55.9495 56.0403C56.4895 56.4803 56.5395 56.9803 56.0995 57.5203L52.4895 61.9303C52.2395 62.2403 52.2495 62.5103 52.5295 62.7403L71.8995 78.6303C72.4395 79.0703 72.4895 79.5703 72.0495 80.1103L72.0396 80.1003Z" fill="#FFF7D4"/>
<path d="M99.5296 60.85L95.4496 62.03C94.7796 62.22 94.3396 61.99 94.1496 61.31L85.7796 32.45C85.5796 31.78 85.8196 31.34 86.4996 31.15L97.9296 27.84C100.43 27.12 102.58 27.24 104.39 28.21C106.2 29.18 107.46 30.91 108.19 33.41L109.28 37.16C109.8 38.95 109.87 40.56 109.48 41.99C109.1 43.42 108.3 44.62 107.09 45.6L107.15 45.79L115.39 55.01C115.73 55.36 115.83 55.66 115.67 55.89C115.51 56.13 115.26 56.3 114.91 56.4L111.02 57.53C110.48 57.69 110.05 57.74 109.74 57.69C109.43 57.64 109.14 57.43 108.86 57.06L101.05 48.08L97.8296 49.01C97.4496 49.12 97.3096 49.35 97.4096 49.71L100.26 59.55C100.46 60.22 100.22 60.66 99.5396 60.85H99.5296ZM96.3496 44.12L101.06 42.76C102.08 42.46 102.77 42.03 103.13 41.46C103.48 40.89 103.52 40.12 103.25 39.16L102.16 35.41C101.86 34.39 101.41 33.73 100.81 33.43C100.21 33.13 99.3896 33.14 98.3696 33.43L93.6596 34.79C93.3096 34.89 93.1796 35.12 93.2796 35.47L95.6696 43.73C95.7696 44.08 95.9996 44.21 96.3496 44.11V44.12Z" fill="#FFF7D4"/>
<path d="M139.67 58.0902L123.42 56.3102C122.72 56.2302 122.41 55.8502 122.49 55.1502L125.76 25.2802C125.84 24.5802 126.22 24.2702 126.92 24.3502L143.17 26.1302C143.83 26.2002 144.13 26.5902 144.05 27.2802L143.68 30.6602C143.6 31.3602 143.23 31.6702 142.57 31.6002L132.18 30.4602C131.78 30.4202 131.56 30.5802 131.52 30.9402L130.81 37.4002C130.77 37.7602 130.95 37.9702 131.35 38.0102L139.85 38.9402C140.55 39.0202 140.86 39.4002 140.78 40.1002L140.41 43.4802C140.33 44.1802 139.95 44.4902 139.25 44.4102L130.75 43.4802C130.35 43.4402 130.13 43.6002 130.09 43.9602L129.33 50.8702C129.29 51.2402 129.47 51.4402 129.87 51.4802L140.26 52.6202C140.92 52.6902 141.22 53.0802 141.14 53.7702L140.77 57.1502C140.69 57.8502 140.32 58.1602 139.66 58.0902H139.67Z" fill="#FFF7D4"/>
<path d="M152 62.7602L148.27 60.7302C147.66 60.4002 147.52 59.9202 147.85 59.3102L162.23 32.9302C162.56 32.3202 163.04 32.1802 163.65 32.5102L174.36 38.3502C176.64 39.5902 178.08 41.1702 178.67 43.0902C179.26 45.0102 178.92 47.1202 177.66 49.4302L175.36 53.6402C174.1 55.9502 172.5 57.3802 170.58 57.9202C168.65 58.4602 166.54 58.1102 164.26 56.8702L158.73 53.8502C158.38 53.6602 158.11 53.7202 157.94 54.0502L153.42 62.3502C153.09 62.9602 152.61 63.1002 152 62.7702V62.7602ZM161.35 48.9502L166 51.4902C166.94 52.0002 167.7 52.1602 168.3 51.9702C168.9 51.7802 169.44 51.2402 169.94 50.3302L171.95 46.6402C172.46 45.7002 172.63 44.9302 172.47 44.3302C172.3 43.7302 171.75 43.1702 170.82 42.6602L166.17 40.1202C165.85 39.9402 165.6 40.0202 165.42 40.3402L161.14 48.2002C160.96 48.5202 161.04 48.7702 161.36 48.9502H161.35Z" fill="#FFF7D4"/>
<path d="M179.04 85.1904L175.59 80.7804C173.97 78.7104 173.27 76.6704 173.49 74.6804C173.71 72.6904 174.86 70.8804 176.93 69.2604L189.41 59.4904C191.48 57.8704 193.51 57.1904 195.5 57.4604C197.49 57.7304 199.29 58.9004 200.91 60.9704L204.36 65.3804C205.98 67.4504 206.68 69.4904 206.46 71.4804C206.24 73.4704 205.09 75.2804 203.02 76.9004L190.54 86.6704C188.46 88.2904 186.44 88.9704 184.45 88.7004C182.46 88.4304 180.66 87.2604 179.04 85.1904ZM180.54 78.1804L182.73 80.9804C183.39 81.8204 184.04 82.2704 184.68 82.3404C185.32 82.4104 186.05 82.1204 186.87 81.4904L198.88 72.0904C199.72 71.4304 200.18 70.7904 200.26 70.1604C200.34 69.5304 200.05 68.7904 199.39 67.9504L197.2 65.1504C196.54 64.3104 195.9 63.8604 195.28 63.7904C194.66 63.7304 193.93 64.0204 193.09 64.6804L181.08 74.0804C180.27 74.7204 179.81 75.3504 179.71 75.9804C179.61 76.6104 179.89 77.3404 180.54 78.1804Z" fill="#FFF7D4"/>
<path d="M188.44 103.24L187.4 99.1202C187.23 98.4402 187.48 98.0202 188.16 97.8402L217.29 90.4802C217.97 90.3102 218.39 90.5602 218.57 91.2402L221.49 102.78C222.13 105.3 221.93 107.45 220.9 109.22C219.87 110.99 218.09 112.2 215.57 112.84L211.79 113.8C209.98 114.26 208.37 114.27 206.95 113.84C205.53 113.41 204.36 112.57 203.43 111.33L203.24 111.38L193.74 119.3C193.38 119.63 193.08 119.72 192.85 119.55C192.62 119.38 192.46 119.12 192.37 118.77L191.38 114.84C191.24 114.29 191.2 113.86 191.26 113.55C191.32 113.24 191.54 112.95 191.92 112.69L201.17 105.2L200.35 101.95C200.25 101.56 200.02 101.41 199.67 101.5L189.73 104.01C189.05 104.18 188.63 103.93 188.45 103.25L188.44 103.24ZM205.26 100.64L206.46 105.39C206.72 106.42 207.13 107.13 207.69 107.5C208.25 107.87 209.01 107.94 209.98 107.69L213.76 106.73C214.79 106.47 215.47 106.04 215.78 105.45C216.09 104.86 216.12 104.04 215.86 103.01L214.66 98.2602C214.57 97.9002 214.35 97.7702 213.99 97.8602L205.65 99.9702C205.29 100.06 205.16 100.28 205.25 100.64H205.26Z" fill="#FFF7D4"/>
<path d="M190.89 136.25L191.45 132.09C191.55 131.36 191.94 131.05 192.64 131.14L217.47 134.46C217.83 134.51 218.04 134.35 218.09 133.99L218.84 128.34C218.93 127.65 219.33 127.35 220.02 127.44L223.39 127.89C224.08 127.98 224.38 128.38 224.29 129.07L221.79 147.8C221.7 148.49 221.3 148.79 220.61 148.7L217.24 148.25C216.55 148.16 216.24 147.76 216.34 147.07L217.09 141.42C217.14 141.02 216.99 140.8 216.62 140.75L191.79 137.43C191.1 137.34 190.8 136.94 190.89 136.25Z" fill="#FFF7D4"/>
<path d="M52.5999 183.029L50.8399 180.629L55.9899 176.869C57.2599 175.939 57.5499 174.999 56.8599 174.059C56.3699 173.389 55.7799 173.069 55.1099 173.099C54.4299 173.129 53.5799 173.529 52.5599 174.279L48.4099 177.309L46.6499 174.909L58.9199 165.939L60.6799 168.339L58.1799 170.169C57.9899 170.309 57.5099 170.629 56.7699 171.119L56.0199 171.579L56.1099 171.709C57.3599 171.619 58.4199 172.149 59.2699 173.319C60.0299 174.359 60.3199 175.339 60.1599 176.289C59.9999 177.239 59.3899 178.089 58.3499 178.849L52.5999 183.049V183.029Z" fill="#FFF7D4"/>
<path d="M60.2097 191.32C58.9497 190.1 58.2997 188.79 58.2597 187.41C58.2197 186.03 58.8197 184.69 60.0597 183.42C61.3297 182.11 62.6397 181.41 63.9997 181.32C65.3497 181.24 66.6097 181.76 67.7697 182.88C68.8797 183.95 69.4397 185.1 69.4397 186.33C69.4397 187.56 68.9097 188.73 67.8297 189.84L66.8297 190.88L61.7697 185.99C61.2097 186.62 60.9297 187.27 60.9297 187.94C60.9297 188.61 61.2397 189.24 61.8497 189.82C62.3197 190.28 62.8197 190.66 63.3297 190.97C63.8497 191.28 64.4397 191.55 65.0997 191.78L63.4997 193.44C62.9397 193.27 62.4097 193.02 61.8997 192.7C61.3897 192.38 60.8197 191.92 60.2097 191.33V191.32ZM66.2997 184.42C65.8497 183.98 65.3497 183.78 64.8197 183.82C64.2797 183.86 63.7397 184.12 63.1897 184.62L66.1897 187.53C66.6897 186.99 66.9497 186.45 66.9597 185.9C66.9697 185.35 66.7497 184.86 66.2997 184.42Z" fill="#FFF7D4"/>
<path d="M73.6099 201.719L73.9799 200.169L73.9199 200.129C73.1499 200.359 72.4699 200.429 71.8999 200.329C71.3299 200.229 70.6899 199.939 69.9799 199.449C69.1199 198.849 68.6099 198.139 68.4499 197.299C68.2899 196.469 68.5299 195.589 69.1599 194.679C69.8199 193.729 70.6399 193.249 71.6199 193.259C72.5999 193.269 73.7799 193.709 75.1599 194.589L76.7499 195.619L77.0199 195.229C77.6499 194.319 77.4999 193.539 76.5599 192.899C75.8399 192.399 74.8499 192.039 73.5799 191.799L73.9099 189.579C75.3199 189.749 76.6499 190.269 77.9099 191.139C79.1199 191.969 79.8599 192.869 80.1399 193.839C80.4199 194.809 80.1899 195.829 79.4499 196.899L75.3199 202.889L73.6099 201.709V201.719ZM75.7599 197.059L74.7899 196.439C74.0599 195.969 73.4399 195.729 72.9299 195.729C72.4199 195.729 71.9999 195.959 71.6599 196.449C71.1799 197.139 71.3399 197.759 72.1299 198.309C72.6999 198.699 73.2599 198.849 73.8299 198.759C74.3999 198.669 74.8699 198.349 75.2399 197.809L75.7499 197.069L75.7599 197.059Z" fill="#FFF7D4"/>
<path d="M83.2398 207.179L80.5898 205.819L87.5098 192.289L90.1598 193.649L83.2398 207.179Z" fill="#FFF7D4"/>
<path d="M93.7097 209.23C94.1997 209.41 94.8197 209.53 95.5897 209.57L94.8097 211.64C93.9997 211.69 93.0897 211.52 92.0797 211.14C90.9697 210.72 90.2597 210.13 89.9597 209.38C89.6597 208.63 89.7297 207.68 90.1497 206.56L92.0097 201.64L90.6797 201.14L91.1197 199.96L93.0097 199.61L94.6297 197.76L96.4097 198.43L95.5897 200.6L98.4497 201.68L97.6597 203.77L94.7997 202.69L92.9397 207.62C92.7897 208.02 92.7897 208.35 92.9397 208.62C93.0897 208.89 93.3497 209.1 93.7197 209.24L93.7097 209.23Z" fill="#FFF7D4"/>
<path d="M109.66 215.579L106.74 214.969L108.05 208.729C108.37 207.189 107.96 206.299 106.81 206.059C105.99 205.889 105.35 206.039 104.87 206.519C104.39 206.999 104.02 207.859 103.76 209.099L102.71 214.129L99.79 213.519L102.9 198.649L105.82 199.259L105.19 202.289C105.14 202.529 105 203.079 104.77 203.939L104.52 204.789L104.67 204.819C105.54 203.909 106.68 203.599 108.09 203.899C109.34 204.159 110.23 204.699 110.74 205.509C111.25 206.319 111.37 207.359 111.11 208.619L109.65 215.589L109.66 215.579Z" fill="#FFF7D4"/>
<path d="M128.09 214.209C128.61 214.189 129.23 214.059 129.95 213.809L130.02 216.029C129.29 216.379 128.38 216.579 127.3 216.609C126.11 216.649 125.23 216.369 124.67 215.789C124.11 215.209 123.81 214.309 123.77 213.109L123.61 207.849L122.19 207.889L122.15 206.629L123.76 205.579L124.55 203.249L126.45 203.189L126.52 205.509L129.58 205.419L129.65 207.659L126.6 207.749L126.76 213.009C126.77 213.429 126.9 213.739 127.14 213.939C127.38 214.139 127.7 214.229 128.09 214.209Z" fill="#FFF7D4"/>
<path d="M139.38 203.85C139.78 203.79 140.11 203.76 140.39 203.78L140.61 206.57C140.36 206.54 140.07 206.56 139.73 206.61C138.79 206.76 138.1 207.12 137.65 207.68C137.2 208.25 137.05 208.96 137.19 209.83L138.07 215.32L135.13 215.79L133.4 205.01L135.63 204.65L136.35 206.39L136.5 206.37C136.74 205.71 137.11 205.15 137.62 204.69C138.13 204.23 138.72 203.95 139.39 203.84L139.38 203.85Z" fill="#FFF7D4"/>
<path d="M153.68 211.419L152.68 210.179L152.61 210.199C152.32 210.949 151.97 211.529 151.53 211.919C151.1 212.309 150.48 212.639 149.66 212.899C148.66 213.219 147.78 213.179 147.03 212.799C146.27 212.409 145.73 211.689 145.39 210.639C145.04 209.539 145.16 208.599 145.77 207.829C146.37 207.059 147.45 206.399 148.99 205.849L150.78 205.219L150.63 204.759C150.29 203.709 149.59 203.349 148.51 203.689C147.68 203.959 146.78 204.519 145.82 205.379L144.27 203.759C145.27 202.749 146.49 202.009 147.95 201.549C149.35 201.099 150.51 201.069 151.45 201.439C152.39 201.809 153.06 202.619 153.45 203.859L155.66 210.789L153.68 211.419ZM151.31 206.869L150.22 207.259C149.4 207.549 148.84 207.889 148.52 208.289C148.2 208.689 148.13 209.169 148.31 209.729C148.56 210.529 149.15 210.779 150.07 210.489C150.73 210.279 151.19 209.919 151.47 209.419C151.74 208.919 151.78 208.349 151.58 207.719L151.31 206.859V206.869Z" fill="#FFF7D4"/>
<path d="M165.42 206.56C162.38 208.09 160.03 207.18 158.35 203.85C157.52 202.19 157.29 200.72 157.68 199.43C158.06 198.14 159.03 197.11 160.57 196.33C161.7 195.76 162.82 195.47 163.94 195.47L164.19 197.92C163.69 197.96 163.23 198.02 162.81 198.09C162.4 198.16 162.01 198.29 161.65 198.47C160.27 199.17 160.07 200.5 161.06 202.46C162.02 204.37 163.19 204.97 164.58 204.28C165.09 204.02 165.53 203.72 165.9 203.36C166.27 203 166.6 202.57 166.89 202.06L168.04 204.34C167.75 204.83 167.41 205.24 167.02 205.56C166.63 205.89 166.11 206.22 165.44 206.55L165.42 206.56Z" fill="#FFF7D4"/>
<path d="M172.03 195.48L172.11 193.37L172.65 188.89L175.37 186.93L174.62 193.31L181.97 195.64L179.18 197.65L174.04 195.9L173.6 197.48L175.59 200.24L173.17 201.98L164.29 189.65L166.71 187.91L170.67 193.41L171.99 195.51L172.02 195.49L172.03 195.48Z" fill="#FFF7D4"/>
<path d="M189.11 189.04C187.87 190.29 186.56 190.93 185.18 190.95C183.8 190.97 182.47 190.36 181.21 189.11C179.91 187.82 179.22 186.5 179.16 185.15C179.1 183.8 179.63 182.55 180.76 181.4C181.84 180.3 183 179.76 184.23 179.76C185.46 179.76 186.62 180.32 187.73 181.4L188.76 182.42L183.81 187.43C184.43 188 185.08 188.29 185.75 188.29C186.42 188.29 187.05 187.99 187.64 187.39C188.1 186.92 188.49 186.43 188.81 185.92C189.13 185.41 189.4 184.82 189.64 184.15L191.28 185.77C191.1 186.32 190.84 186.86 190.52 187.37C190.19 187.88 189.73 188.44 189.13 189.05L189.11 189.04ZM182.28 182.87C181.84 183.32 181.63 183.81 181.66 184.35C181.69 184.89 181.95 185.43 182.44 185.99L185.38 183.02C184.85 182.51 184.31 182.25 183.76 182.23C183.21 182.21 182.72 182.43 182.28 182.88V182.87Z" fill="#FFF7D4"/>
<path d="M190.17 169.98C190.41 169.65 190.63 169.4 190.84 169.22L192.96 171.05C192.76 171.21 192.57 171.42 192.36 171.7C191.8 172.47 191.56 173.21 191.64 173.92C191.72 174.64 192.11 175.25 192.82 175.77L197.3 179.06L195.54 181.46L186.74 175L188.07 173.18L189.81 173.91L189.9 173.79C189.61 173.16 189.48 172.49 189.52 171.81C189.56 171.13 189.78 170.51 190.18 169.96L190.17 169.98Z" fill="#FFF7D4"/>
<path d="M176.9 115.001C175.31 120.731 168.83 126.801 162.17 129.681C155.95 132.411 149.54 132.351 146.83 126.681C144.29 121.101 146.72 114.841 150.23 110.191C153.01 106.551 156.38 103.531 160.35 101.131L160.53 101.041C161.08 100.691 161.63 100.381 162.18 100.141C171.88 95.471 179.4 105.231 176.91 115.001H176.9Z" fill="#FFF7D4"/>
<path d="M167.9 164.26C165.89 166.05 163.98 167.28 162.17 168.01C147.73 173.96 140.17 149.78 161 141.53C161.37 141.42 161.77 141.29 162.17 141.2C165.37 140.27 169.07 139.61 171.98 140.58L172.16 140.65C181.62 145.35 172.95 159.02 167.9 164.26Z" fill="#FFF7D4"/>
<path d="M121.79 108.691C130.14 119.671 167.8 86.3407 145.82 79.8707L145.63 79.8207C131.57 76.6407 114.08 96.4907 121.79 108.691Z" fill="#FFF7D4"/>
<path d="M83.4198 112.47C77.6698 110.71 77.2198 105.3 79.9998 100.26C80.9298 98.5603 82.0698 96.8203 83.3998 95.1203C86.7098 90.7803 91.1198 86.7903 95.8098 84.9603L96.0098 84.8903C96.5798 84.6903 97.1298 84.5403 97.6598 84.4303C116.75 79.8903 99.3798 118.56 83.4198 112.47Z" fill="#FFF7D4"/>
<path d="M139.55 145.39C144.29 131.84 130.53 114.96 116.23 119.78L116.02 119.86C114 120.63 112.01 121.79 110.11 122.86C100.55 128.36 93.6498 126.821 83.6998 128.411C80.4298 128.931 77.2998 130.061 74.8298 132.381C62.6798 144.181 73.7998 151.15 88.2098 155.01C91.7998 156 95.3998 157.48 97.5998 160.59C105.1 171.3 108.52 194.2 124.62 183.84C134.29 176.81 132.77 161.94 137.31 151.16C138.08 149.26 138.93 147.361 139.55 145.41V145.39Z" fill="#FFF7D4"/>
</svg>