<svg width="325" height="164" viewBox="0 0 325 164" fill="none" xmlns="http://www.w3.org/2000/svg">
<g clip-path="url(#clip0_3_5)">
<path d="M275 0H50C22.3858 0 0 22.3858 0 50V114C0 141.614 22.3858 164 50 164H275C302.614 164 325 141.614 325 114V50C325 22.3858 302.614 0 275 0Z" fill="#CAE4C5"/>
<path d="M48.7903 141.667H42.5434C41.5145 141.667 41 141.153 41 140.124V95.954C41 94.9251 41.5145 94.4106 42.5434 94.4106H65.9879C66.9727 94.4106 67.4578 94.9251 67.4578 95.954V100.952C67.4578 101.981 66.9727 102.495 65.9879 102.495H51.2156C50.6277 102.495 50.3337 102.76 50.3337 103.303V114.695C50.3337 115.283 50.6277 115.577 51.2156 115.577H63.7831C64.812 115.577 65.3265 116.091 65.3265 117.12V122.044C65.3265 123.117 64.812 123.661 63.7831 123.661H51.2156C50.6277 123.661 50.3337 123.926 50.3337 124.47V140.124C50.3337 141.153 49.8193 141.667 48.7903 141.667Z" fill="#254222"/>
<path d="M100.236 141.667H83.9939C80.1281 141.667 77.1296 140.638 75.0276 138.58C72.9257 136.523 71.8674 133.553 71.8674 129.688V116.165C71.8674 112.299 72.9257 109.33 75.0276 107.272C77.1296 105.214 80.1281 104.185 83.9939 104.185H89.7999C93.6657 104.185 96.6642 105.214 98.7661 107.272C100.868 109.33 101.926 112.299 101.926 116.165V125.499C101.926 126.527 101.412 127.042 100.383 127.042H81.9361C81.3481 127.042 81.0541 127.306 81.0541 127.85V129.467C81.0541 130.981 81.3775 132.069 82.0389 132.73C82.7004 133.392 83.8175 133.73 85.3903 133.73H100.236C101.265 133.73 101.779 134.274 101.779 135.347V140.197C101.779 141.182 101.265 141.667 100.236 141.667ZM81.9361 120.795H91.9312C92.4751 120.795 92.7396 120.53 92.7396 119.986V116.459C92.7396 114.886 92.4163 113.784 91.7842 113.152C91.1522 112.52 90.0498 112.196 88.477 112.196H85.3903C83.8175 112.196 82.7151 112.52 82.083 113.152C81.451 113.784 81.1276 114.886 81.1276 116.459V119.986C81.1276 120.53 81.3922 120.795 81.9361 120.795Z" fill="#254222"/>
<path d="M108.982 112.269H106.042C105.41 112.269 104.984 112.152 104.793 111.931C104.601 111.711 104.499 111.329 104.499 110.799V105.728C104.499 104.699 105.013 104.185 106.042 104.185H108.982C109.526 104.185 109.79 103.92 109.79 103.377V96.3947C109.79 95.3658 110.334 94.8513 111.407 94.8513H117.58C118.609 94.8513 119.124 95.3658 119.124 96.3947V103.377C119.124 103.92 119.418 104.185 120.006 104.185H125.738C126.767 104.185 127.282 104.699 127.282 105.728V110.799C127.282 111.784 126.767 112.269 125.738 112.269H120.006C119.418 112.269 119.124 112.534 119.124 113.078V129.32C119.124 130.834 119.462 131.922 120.153 132.598C120.844 133.259 121.961 133.583 123.533 133.583H126.473C127.502 133.583 128.017 134.097 128.017 135.126V140.197C128.017 141.182 127.502 141.667 126.473 141.667H121.99C118.168 141.667 115.185 140.653 113.024 138.61C110.863 136.581 109.79 133.627 109.79 129.761V113.078C109.79 112.534 109.526 112.269 108.982 112.269Z" fill="#254222"/>
<path d="M157.267 135.126V140.197C157.267 141.182 156.753 141.667 155.724 141.667H144.773C140.908 141.667 137.909 140.638 135.807 138.58C133.705 136.523 132.647 133.553 132.647 129.688V116.165C132.647 112.299 133.705 109.33 135.807 107.272C137.909 105.214 140.908 104.185 144.773 104.185H155.724C156.753 104.185 157.267 104.7 157.267 105.729V110.8C157.267 111.785 156.753 112.27 155.724 112.27H146.243C144.729 112.27 143.627 112.608 142.98 113.254C142.319 113.916 141.981 115.033 141.981 116.606V129.247C141.981 130.761 142.319 131.863 142.98 132.554C143.642 133.245 144.729 133.583 146.243 133.583H155.724C156.753 133.583 157.267 134.097 157.267 135.126Z" fill="#254222"/>
<path d="M170.643 141.667H164.396C163.367 141.667 162.853 141.153 162.853 140.124V91.5443C162.853 90.5154 163.367 90.001 164.396 90.001H170.643C171.672 90.001 172.186 90.5154 172.186 91.5443V108.154H172.48C173.068 106.728 174.038 105.714 175.391 105.097C176.743 104.479 178.169 104.185 179.683 104.185H182.035C185.9 104.185 188.796 105.214 190.707 107.272C192.618 109.33 193.573 112.299 193.573 116.165V140.124C193.573 141.153 193.029 141.667 191.956 141.667H185.783C184.754 141.667 184.239 141.153 184.239 140.124V116.606C184.239 115.033 183.916 113.916 183.255 113.254C182.593 112.593 181.476 112.27 179.903 112.27H177.257C175.244 112.27 173.906 112.813 173.215 113.886C172.524 114.959 172.186 116.282 172.186 117.855V140.124C172.186 141.153 171.672 141.667 170.643 141.667Z" fill="#254222"/>
<path d="M228.189 141.667H211.947C208.081 141.667 205.082 140.638 202.98 138.58C200.879 136.523 199.82 133.553 199.82 129.688V116.165C199.82 112.299 200.879 109.33 202.98 107.272C205.082 105.214 208.081 104.185 211.947 104.185H217.753C221.619 104.185 224.617 105.214 226.719 107.272C228.821 109.33 229.879 112.299 229.879 116.165V125.499C229.879 126.527 229.365 127.042 228.336 127.042H209.889C209.301 127.042 209.007 127.306 209.007 127.85V129.467C209.007 130.981 209.33 132.069 209.992 132.73C210.653 133.392 211.77 133.73 213.343 133.73H228.189C229.218 133.73 229.732 134.274 229.732 135.347V140.197C229.732 141.182 229.218 141.667 228.189 141.667ZM209.889 120.795H219.884C220.428 120.795 220.692 120.53 220.692 119.986V116.459C220.692 114.886 220.369 113.784 219.737 113.152C219.105 112.52 218.003 112.196 216.43 112.196H213.343C211.77 112.196 210.668 112.52 210.036 113.152C209.404 113.784 209.08 114.886 209.08 116.459V119.986C209.08 120.53 209.345 120.795 209.889 120.795Z" fill="#254222"/>
<path d="M249.869 141.667H246.856C243.035 141.667 240.168 140.638 238.257 138.58C236.347 136.523 235.391 133.553 235.391 129.688V116.165C235.391 112.299 236.347 109.33 238.257 107.272C240.168 105.214 243.035 104.185 246.856 104.185H249.869C251.236 104.185 252.633 104.494 254.059 105.097C255.484 105.714 256.484 106.728 257.072 108.154H257.366V91.5443C257.366 90.5154 257.88 90.001 258.909 90.001H265.156C266.185 90.001 266.7 90.5154 266.7 91.5443V140.124C266.7 141.153 266.185 141.667 265.156 141.667H258.909C257.88 141.667 257.366 141.153 257.366 140.124V137.698H257.072C256.484 139.124 255.484 140.138 254.059 140.756C252.633 141.373 251.236 141.667 249.869 141.667ZM257.366 127.997V117.855C257.366 116.282 257.028 114.959 256.337 113.886C255.646 112.813 254.308 112.27 252.295 112.27H248.988C247.415 112.27 246.312 112.608 245.68 113.254C245.048 113.916 244.725 115.033 244.725 116.606V129.247C244.725 130.761 245.048 131.863 245.68 132.554C246.312 133.245 247.415 133.583 248.988 133.583H252.295C254.308 133.583 255.646 133.039 256.337 131.966C257.028 130.893 257.366 129.57 257.366 127.997Z" fill="#254222"/>
<path d="M284 135.67C284 137.625 283.059 139.36 281.619 140.433C281.222 140.756 280.766 141.021 280.296 141.212C279.59 141.506 278.811 141.668 278.003 141.668C276.915 141.668 275.886 141.374 275.004 140.859C274.578 140.609 274.181 140.301 273.828 139.962C272.697 138.875 272.006 137.346 272.006 135.67C272.006 133.598 273.049 131.775 274.651 130.702C275.048 130.423 275.489 130.202 275.96 130.041C276.592 129.806 277.283 129.673 278.003 129.673C279.943 129.673 281.663 130.599 282.75 132.025C283.074 132.437 283.338 132.907 283.559 133.407C283.838 134.098 284 134.877 284 135.67Z" fill="#254222"/>
<path d="M282.192 136.082C281.663 137.479 281.442 138.934 281.619 140.433C281.222 140.756 280.766 141.021 280.296 141.212C280.252 141.168 280.237 141.124 280.237 141.08C279.958 139.242 280.105 137.435 280.781 135.7C281.266 134.407 281.913 133.142 282.751 132.025C283.074 132.437 283.339 132.907 283.559 133.407C282.986 134.245 282.545 135.171 282.192 136.082Z" fill="#AAD1A1"/>
<path d="M275.034 140.815C275.034 140.815 275.019 140.844 275.004 140.859C274.578 140.609 274.181 140.301 273.828 139.962C275.372 137.14 275.607 133.76 274.652 130.702C275.048 130.423 275.489 130.202 275.96 130.041C275.974 130.07 275.989 130.1 276.004 130.129C277.18 133.627 276.856 137.596 275.034 140.815Z" fill="#AAD1A1"/>
<path d="M210.11 60.6179C216.68 56.4141 223.676 62.3377 229.644 63.9839C232.305 64.028 232.466 65.836 233.642 66.5268C234.818 67.2177 235.583 69.0991 233.054 69.0403C230.526 68.9815 223.397 65.3215 220.84 65.8948C218.282 66.468 212.403 64.3367 211.183 64.7483C209.963 65.1598 210.11 60.6179 210.11 60.6179Z" fill="#FFF7D4" stroke="#254222" stroke-miterlimit="10"/>
<path d="M124.195 68.2764C115.934 70.1284 107.247 75.7434 98.7367 71.6571C97.164 70.9663 95.6941 70.0402 94.2536 69.0701C91.6813 67.3651 89.1678 65.5571 86.184 64.8957C84.0086 64.4106 81.2011 64.7487 78.9816 64.6752C76.6739 64.6164 74.9835 64.1166 75.2775 61.8089C76.4681 57.9432 81.7597 59.0603 88.3888 59.7658C91.0199 60.0451 93.8567 60.2509 96.7377 60.0598C100.721 59.7952 104.793 58.7369 108.467 56.0029L124.195 68.2764Z" fill="#FFF7D4" stroke="#254222" stroke-miterlimit="10"/>
<path d="M225.969 42.4212C225.822 42.333 225.69 42.5388 225.808 42.6417C228.336 44.773 235.127 49.4913 235.127 52.6368C235.127 53.7686 234.583 54.871 233.231 55.8706C229.615 59.119 225.793 54.3713 222.133 53.8862C219.693 54.3419 217.135 54.0626 214.931 53.1513C208.404 56.0469 208.713 64.7633 216.121 63.6756C223.294 64.5428 230.305 69.0113 237.508 65.6746C247.415 68.5409 230.761 75.464 226.572 74.3028C216.268 74.0529 204.935 74.5674 196.866 68.4527C174.009 79.0211 144.024 81.9462 124.195 68.291C123.534 67.8354 119.741 64.6898 116.596 66.6154C113.45 68.5262 113.494 71.1426 112.642 71.9951C105.733 78.9329 95.0474 76.0667 86.9043 79.0358C81.3041 83.4307 66.4436 84.5919 76.7622 74.8614C81.0542 70.8045 89.8882 73.2592 91.2698 66.6889C91.6814 64.7339 95.4884 61.0298 95.459 59.8686C95.165 51.3286 111.848 46.8896 97.0465 39.7901C89.4619 35.792 76.4388 24.9591 77.0855 23.8273C78.8494 20.7258 89.6236 30.2506 95.4443 34.4104C122.99 52.7544 162.618 46.0665 191.545 32.3084C198.159 29.1629 200.055 28.3986 203.936 26.3113C207.816 24.2241 212.373 23.5186 212.373 23.5186C218.561 19.3 230.908 24.5769 235.288 30.7063C235.788 32.5436 234.539 34.5574 235.127 36.3653C257.777 42.3183 239.904 50.6672 225.969 42.4212Z" fill="#FFF7D4" stroke="#254222" stroke-miterlimit="10"/>
<path d="M208.919 44.5525C208.89 48.771 211.447 51.7255 214.843 53.1366L208.919 44.5525Z" fill="#FFF7D4"/>
<path d="M208.919 44.5525C208.89 48.771 211.447 51.7255 214.843 53.1366" stroke="#254222" stroke-miterlimit="10" stroke-linecap="round"/>
<path d="M231.614 33.8227C229.967 33.0731 227.087 32.7644 226.601 35.0133L231.614 33.8227Z" fill="#FFF7D4"/>
<path d="M231.584 33.896C229.615 33.4698 228.248 33.896 226.675 35.0278C226.631 35.0719 226.557 35.0425 226.528 34.9984C226.234 34.4252 226.425 33.6755 226.91 33.1905C228.336 32.1175 230.394 32.9112 231.643 33.749C231.702 33.7931 231.658 33.896 231.584 33.8813V33.896Z" fill="#254222"/>
<path d="M243.049 39.658C242.447 39.8638 241.021 40.3929 241.668 41.0985C242.417 41.6276 243.182 41.9804 243.873 42.8476C243.902 42.877 243.902 42.9358 243.873 42.9799C243.27 43.2886 242.623 43.2592 242.02 43.0681C240.756 42.6859 239.698 40.4076 241.33 39.7315C241.932 39.4963 242.491 39.511 243.035 39.5257C243.123 39.5257 243.138 39.6433 243.049 39.6727V39.658Z" fill="#254222"/>
<path d="M226.278 42.9353C229.35 45.6398 237.405 51.1078 231.863 55.1646C227.336 53.6801 220.531 48.9912 223.706 43.5967C224.029 42.5237 225.043 42.2591 225.999 42.7442L226.278 42.9206V42.9353Z" fill="#FFF7D4" stroke="#254222" stroke-miterlimit="10"/>
<path d="M219.596 45.8452C220.842 46.0761 222.096 46.2914 223.361 46.4585H223.362C225.986 46.8008 228.725 47.4741 231.514 46.8179L231.515 46.8188C231.764 46.7644 232.046 46.6749 232.246 46.6206C232.468 46.5605 232.653 46.523 232.826 46.522C233.099 46.5285 233.396 46.5871 233.73 46.6665C234.045 46.7416 234.416 46.8404 234.762 46.896C234.763 46.8962 234.765 46.8968 234.766 46.897L234.769 46.8979C234.979 46.933 235.639 46.9823 236.394 47.0337C237.054 47.0787 237.826 47.1264 238.522 47.1714C239.047 49.4692 240.437 51.1208 241.697 52.9497C242.921 54.7266 244.207 56.3634 245.268 58.1479C239.506 58.0862 233.722 58.901 228.198 60.5317C227.205 57.7196 225.54 55.2434 223.874 52.8384C222.281 50.5381 220.693 48.3047 219.596 45.8452Z" fill="white" stroke="#254222"/>
<path d="M225.646 50.1675C226.793 50.9171 228.424 50.7995 229.468 49.9029C229.718 49.6824 229.982 49.4032 230.32 49.3885C230.644 49.3885 230.908 49.6383 231.202 49.7853C231.673 50.0205 232.231 49.9617 232.716 49.8147C233.201 49.6677 233.672 49.4179 234.171 49.2709C235.053 49.021 236.023 49.0798 236.861 49.462" stroke="#254222" stroke-width="0.5" stroke-miterlimit="10" stroke-linecap="round"/>
<path d="M227.248 53.4453C228.394 54.195 230.026 54.0774 231.07 53.1807C231.32 52.9603 231.584 52.681 231.922 52.6663C232.246 52.6663 232.51 52.9162 232.804 53.0632C233.274 53.2983 233.833 53.2395 234.318 53.0926C234.803 52.9456 235.274 52.6957 235.773 52.5487C236.655 52.2988 237.625 52.3576 238.463 52.7398" stroke="#254222" stroke-width="0.5" stroke-miterlimit="10" stroke-linecap="round"/>
<path d="M228.321 56.708C229.467 57.4577 231.099 57.3401 232.143 56.4434C232.393 56.223 232.657 55.9437 232.995 55.929C233.319 55.929 233.583 56.1789 233.877 56.3259C234.347 56.561 234.906 56.5022 235.391 56.3552C235.876 56.2083 236.347 55.9584 236.846 55.8114C237.728 55.5615 238.698 55.6203 239.536 56.0025" stroke="#254222" stroke-width="0.5" stroke-miterlimit="10" stroke-linecap="round"/>
<path d="M214.857 24.7387C203.333 20.3732 190.751 26.1498 178.948 24.0479C174.48 30.4859 202.113 36.6741 205.803 33.9989C206.582 33.1611 205.656 32.5438 204.788 32.5291C200.937 30.045 206.405 26.87 209.242 28.0459" fill="#FFF7D4"/>
<path d="M214.857 24.7387C203.333 20.3732 190.751 26.1498 178.948 24.0479C174.48 30.4859 202.113 36.6741 205.803 33.9989C206.582 33.1611 205.656 32.5438 204.788 32.5291C200.937 30.045 206.405 26.87 209.242 28.0459" stroke="#254222" stroke-width="1.16" stroke-miterlimit="10" stroke-linecap="round"/>
</g>
<defs>
<clipPath id="clip0_3_5">
<rect width="325" height="164" fill="white"/>
</clipPath>
</defs>
</svg>
