<svg width="418" height="44" viewBox="0 0 418 44" fill="none" xmlns="http://www.w3.org/2000/svg">
<g clip-path="url(#clip0_102_480)">
<path d="M414.45 16.3604H404.29C402.71 16.3604 401.42 15.0804 401.42 13.4904V3.33045C401.42 1.75045 400.14 0.460449 398.55 0.460449H393.45C391.87 0.460449 390.58 1.74045 390.58 3.33045V13.4904C390.58 15.0704 389.3 16.3604 387.71 16.3604H377.55C375.97 16.3604 374.68 17.6404 374.68 19.2304V24.3305C374.68 25.9104 375.96 27.2005 377.55 27.2005H387.71C389.29 27.2005 390.58 28.4804 390.58 30.0704V40.2304C390.58 41.8105 391.86 43.1004 393.45 43.1004H398.55C400.13 43.1004 401.42 41.8204 401.42 40.2304V30.0704C401.42 28.4904 402.7 27.2005 404.29 27.2005H414.45C416.03 27.2005 417.32 25.9205 417.32 24.3305V19.2304C417.32 17.6504 416.04 16.3604 414.45 16.3604Z" fill="#99CC66"/>
<path d="M31.54 43.3903V0.470254H35.21C37.1 0.470254 38.97 0.390254 40.84 0.240254C42.71 0.0902539 44.66 0.0102539 46.7 0.0102539C50.01 0.0102539 52.85 0.500254 55.22 1.47025C57.59 2.44025 59.41 4.01025 60.69 6.16025C61.97 8.32025 62.61 11.1603 62.61 14.6803C62.61 19.5903 61.14 23.3903 58.21 26.0903C55.27 28.7903 51.02 30.1303 45.46 30.1303C44.25 30.1303 43.26 30.1303 42.5 30.1003C41.74 30.0803 41.11 30.0703 40.61 30.0703V43.3803H31.54V43.3903ZM40.61 23.3103C41.34 23.4103 42.1 23.4703 42.88 23.5103C43.66 23.5503 44.46 23.5703 45.29 23.5703C46.83 23.5703 48.24 23.3103 49.52 22.7903C50.8 22.2703 51.82 21.3703 52.58 20.0803C53.34 18.7903 53.72 16.9803 53.72 14.6503C53.72 11.9203 53.01 9.83025 51.58 8.38025C50.16 6.94025 48.01 6.26025 45.14 6.36025C44.41 6.38025 43.64 6.42025 42.83 6.48025C42.02 6.54025 41.28 6.63025 40.61 6.77025V23.3203V23.3103Z" fill="#254222"/>
<path d="M69.2302 43.3902V0.470215H95.4302V7.29022H78.2402V18.0602H91.2702V24.7302H78.2402V36.4302H97.2402V43.3902H69.2202H69.2302Z" fill="#254222"/>
<path d="M112.72 43.3902V7.40022H100.5V0.470215H134.03V7.40022H121.81V43.3902H112.71H112.72Z" fill="#254222"/>
<path d="M159.4 43.3903H150.36V0.470254H153.77C155.23 0.470254 156.94 0.390254 158.88 0.240254C160.82 0.0902539 163.15 0.0102539 165.87 0.0102539C167.87 0.0102539 169.8 0.230254 171.65 0.660254C173.5 1.09025 175.15 1.81025 176.6 2.80025C178.05 3.79025 179.2 5.13025 180.05 6.80025C180.9 8.48025 181.32 10.5503 181.32 13.0403C181.32 15.8303 180.86 18.1503 179.93 19.9903C179.01 21.8303 177.71 23.2603 176.05 24.2903C174.38 25.3203 172.43 26.0103 170.2 26.3503C169.43 26.4703 168.65 26.5803 167.86 26.6803C167.07 26.7903 166.03 26.8703 164.74 26.9403C163.45 27.0103 161.67 27.0403 159.4 27.0403V43.3903ZM159.4 20.6803C159.8 20.7403 160.37 20.7903 161.1 20.8203C161.83 20.8603 162.58 20.8803 163.34 20.8803H165.17C167.62 20.8803 169.45 20.1903 170.67 18.8103C171.89 17.4303 172.5 15.5803 172.5 13.2503C172.5 11.9403 172.27 10.7703 171.82 9.74025C171.37 8.71025 170.57 7.90025 169.44 7.31025C168.3 6.72025 166.71 6.43025 164.67 6.43025C163.76 6.43025 162.85 6.47025 161.93 6.56025C161.01 6.65025 160.16 6.78025 159.39 6.95025V20.6703L159.4 20.6803ZM174.24 43.3903C173.99 43.0603 173.77 42.6903 173.59 42.2803C173.41 41.8703 173.1 41.2003 172.68 40.2703C172.08 38.9803 171.53 37.5803 171.02 36.0803C170.51 34.5803 169.98 33.1403 169.42 31.7803C168.86 30.4103 168.22 29.2803 167.49 28.3703C166.76 27.4703 165.87 26.9703 164.83 26.9003L167.37 24.9103L173 24.5303C174.1 25.0103 175.07 25.8303 175.9 27.0003C176.73 28.1703 177.51 29.5103 178.21 31.0303C178.91 32.5503 179.61 34.1203 180.29 35.7403C180.97 37.3603 181.71 38.8603 182.5 40.2503C182.79 40.7903 183.08 41.3203 183.38 41.8403C183.68 42.3603 183.97 42.8803 184.26 43.4003H174.24V43.3903Z" fill="#254222"/>
<path d="M190.45 43.3902V0.470215H216.65V7.29022H199.46V18.0602H212.49V24.7302H199.46V36.4302H218.46V43.3902H190.44H190.45Z" fill="#254222"/>
<path d="M225.39 43.3903V0.470254H229.06C230.95 0.470254 232.82 0.390254 234.69 0.240254C236.56 0.0902539 238.51 0.0102539 240.55 0.0102539C243.86 0.0102539 246.7 0.500254 249.07 1.47025C251.44 2.44025 253.26 4.01025 254.54 6.16025C255.82 8.32025 256.46 11.1603 256.46 14.6803C256.46 19.5903 254.99 23.3903 252.06 26.0903C249.12 28.7903 244.87 30.1303 239.31 30.1303C238.1 30.1303 237.11 30.1303 236.35 30.1003C235.59 30.0803 234.96 30.0703 234.46 30.0703V43.3803H225.39V43.3903ZM234.46 23.3103C235.19 23.4103 235.95 23.4703 236.73 23.5103C237.51 23.5503 238.31 23.5703 239.14 23.5703C240.68 23.5703 242.09 23.3103 243.37 22.7903C244.65 22.2703 245.67 21.3703 246.43 20.0803C247.19 18.7903 247.57 16.9803 247.57 14.6503C247.57 11.9203 246.86 9.83025 245.43 8.38025C244.01 6.94025 241.86 6.26025 238.99 6.36025C238.26 6.38025 237.49 6.42025 236.68 6.48025C235.87 6.54025 235.13 6.63025 234.46 6.77025V23.3203V23.3103Z" fill="#254222"/>
<path d="M280.38 43.8502C276.26 43.9302 272.72 43.0502 269.75 41.2102C266.78 39.3702 264.53 36.7702 262.99 33.4102C261.45 30.0502 260.72 26.1402 260.8 21.6702C260.9 16.7202 261.84 12.6602 263.63 9.50023C265.42 6.33022 267.84 3.98023 270.88 2.44023C273.92 0.900225 277.37 0.0802251 281.22 0.000225113C285.17 -0.0797749 288.58 0.780225 291.46 2.56023C294.34 4.34023 296.54 6.88023 298.07 10.1802C299.6 13.4802 300.32 17.3802 300.22 21.8602C300.12 26.8102 299.22 30.9002 297.51 34.1202C295.8 37.3502 293.47 39.7502 290.52 41.3402C287.57 42.9302 284.2 43.7602 280.38 43.8402V43.8502ZM280.56 37.2102C283.78 37.2102 286.33 35.9502 288.21 33.4302C290.1 30.9102 291.04 26.9602 291.04 21.5902C291.04 18.7802 290.67 16.2602 289.93 14.0202C289.19 11.7902 288.08 10.0202 286.59 8.72023C285.11 7.42023 283.25 6.77023 281.02 6.77023C279.02 6.77023 277.18 7.27023 275.52 8.27023C273.85 9.27023 272.52 10.8902 271.52 13.1202C270.52 15.3502 270.02 18.3202 270.02 22.0202C270.02 24.8502 270.41 27.4102 271.2 29.7002C271.99 31.9902 273.16 33.8202 274.72 35.1702C276.28 36.5202 278.22 37.2102 280.55 37.2102H280.56Z" fill="#254222"/>
<path d="M316.66 43.3903H307.62V0.470254H311.03C312.49 0.470254 314.2 0.390254 316.14 0.240254C318.08 0.0902539 320.41 0.0102539 323.13 0.0102539C325.13 0.0102539 327.06 0.230254 328.91 0.660254C330.76 1.09025 332.41 1.81025 333.86 2.80025C335.31 3.79025 336.46 5.13025 337.31 6.80025C338.16 8.48025 338.58 10.5503 338.58 13.0403C338.58 15.8303 338.12 18.1503 337.19 19.9903C336.27 21.8303 334.97 23.2603 333.31 24.2903C331.64 25.3203 329.69 26.0103 327.46 26.3503C326.69 26.4703 325.91 26.5803 325.12 26.6803C324.33 26.7903 323.29 26.8703 322 26.9403C320.71 27.0103 318.93 27.0403 316.66 27.0403V43.3903ZM316.66 20.6803C317.06 20.7403 317.63 20.7903 318.36 20.8203C319.09 20.8603 319.84 20.8803 320.6 20.8803H322.43C324.88 20.8803 326.71 20.1903 327.93 18.8103C329.15 17.4303 329.76 15.5803 329.76 13.2503C329.76 11.9403 329.53 10.7703 329.08 9.74025C328.63 8.71025 327.83 7.90025 326.7 7.31025C325.56 6.72025 323.97 6.43025 321.93 6.43025C321.02 6.43025 320.11 6.47025 319.19 6.56025C318.27 6.65025 317.42 6.78025 316.65 6.95025V20.6703L316.66 20.6803ZM331.51 43.3903C331.26 43.0603 331.04 42.6903 330.86 42.2803C330.68 41.8703 330.37 41.2003 329.95 40.2703C329.35 38.9803 328.8 37.5803 328.29 36.0803C327.78 34.5803 327.25 33.1403 326.69 31.7803C326.13 30.4103 325.49 29.2803 324.76 28.3703C324.03 27.4703 323.14 26.9703 322.1 26.9003L324.64 24.9103L330.27 24.5303C331.37 25.0103 332.34 25.8303 333.17 27.0003C334 28.1703 334.78 29.5103 335.48 31.0303C336.18 32.5503 336.88 34.1203 337.56 35.7403C338.24 37.3603 338.98 38.8603 339.77 40.2503C340.06 40.7903 340.35 41.3203 340.65 41.8403C340.95 42.3603 341.24 42.8803 341.53 43.4003H331.51V43.3903Z" fill="#254222"/>
<path d="M355.39 43.3902V7.40022H343.17V0.470215H376.7V7.40022H364.48V43.3902H355.38H355.39Z" fill="#254222"/>
<path d="M21.5399 37.3801C21.5399 38.2701 21.3899 39.0101 21.0999 39.5901C20.8099 40.1701 20.3399 40.6001 19.6999 40.8901C19.0599 41.1701 18.2199 41.3201 17.1699 41.3201H9.44986V43.0901H7.30986C7.12986 42.4401 6.94986 41.9201 6.77986 41.5301C6.60986 41.1401 6.31986 40.8601 5.90986 40.6801C5.70986 40.5901 5.46986 40.5001 5.19986 40.4001C4.92986 40.3001 4.63986 40.1901 4.31986 40.0801C3.99986 39.9701 3.68986 39.8501 3.35986 39.7301V37.3101H6.68986V33.3901H9.42986V37.3101H15.4499C16.3799 37.3101 17.0499 37.2601 17.4799 37.1701C17.8999 37.0701 18.1799 36.9101 18.2899 36.6701C18.4099 36.4301 18.4699 36.0901 18.4699 35.6501C18.4699 35.4201 18.4399 35.1601 18.3799 34.8601C18.3199 34.5601 18.2499 34.2801 18.1599 34.0101C18.0699 33.7401 17.9799 33.5301 17.8799 33.3801L20.1199 32.8501C20.3299 33.0901 20.5399 33.4401 20.7599 33.9101C20.9699 34.3801 21.1499 34.9201 21.2899 35.5201C21.4299 36.1201 21.4999 36.7401 21.4999 37.3701L21.5399 37.3801Z" fill="#99CC66"/>
<path d="M21.33 30.1903H0V26.1903H5.71L8.72 26.4003L8.35 26.5303C8.07 26.2103 7.79 25.7903 7.51 25.2803C7.23 24.7703 6.99 24.2103 6.8 23.5903C6.61 22.9803 6.51 22.3503 6.5 21.7003C6.46 20.1103 6.9 18.9403 7.83 18.2003C8.76 17.4603 10.24 17.0903 12.27 17.0903H21.34V21.1203H12.73C11.57 21.1203 10.78 21.2903 10.34 21.6203C9.9 21.9503 9.7 22.5303 9.72 23.3503C9.72 23.7203 9.82 24.1703 9.98 24.7003C10.15 25.2303 10.42 25.7303 10.81 26.1803H21.34V30.1803L21.33 30.1903Z" fill="#99CC66"/>
<path d="M21.54 7.06016C21.54 9.31016 20.87 11.0302 19.53 12.2302C18.19 13.4302 16.34 14.0302 13.98 14.0302C12.56 14.0302 11.29 13.7602 10.17 13.2102C9.05002 12.6602 8.16002 11.8702 7.51002 10.8302C6.86002 9.79016 6.53002 8.52016 6.52002 7.01016C6.52002 6.25016 6.61002 5.52016 6.81002 4.83016C7.01002 4.14016 7.34002 3.52016 7.79002 2.98016C8.24002 2.44016 8.84002 2.00016 9.58002 1.67016C10.32 1.34016 11.22 1.17016 12.29 1.16016C12.82 1.16016 13.32 1.16016 13.77 1.19016C14.23 1.21016 14.61 1.25016 14.94 1.31016V11.8802L12.77 11.6202V4.90016C12.06 4.86016 11.44 4.90016 10.9 5.01016C10.36 5.13016 9.94002 5.36016 9.64002 5.70016C9.34002 6.04016 9.19002 6.52016 9.19002 7.14016C9.19002 7.76016 9.36002 8.27016 9.69002 8.72016C10.02 9.17016 10.59 9.52016 11.4 9.76016C12.21 10.0002 13.32 10.1002 14.74 10.0702C15.69 10.0402 16.46 9.85016 17.03 9.51016C17.6 9.17016 18.01 8.71016 18.26 8.13016C18.51 7.55016 18.63 6.87016 18.63 6.10016C18.63 5.68016 18.6 5.22016 18.53 4.72016C18.46 4.22016 18.37 3.75016 18.25 3.30016C18.13 2.85016 18.01 2.51016 17.89 2.28016L20.07 1.61016C20.33 1.93016 20.58 2.38016 20.8 2.94016C21.02 3.50016 21.2 4.14016 21.34 4.86016C21.48 5.58016 21.54 6.31016 21.54 7.06016Z" fill="#99CC66"/>
</g>
<defs>
<clipPath id="clip0_102_480">
<rect width="417.32" height="43.85" fill="white"/>
</clipPath>
</defs>
</svg>
